<?xml version="1.0" encoding="utf-8"?>
<!-- Generator: Adobe Illustrator 22.0.1, SVG Export Plug-In . SVG Version: 6.00 Build 0)  -->
<svg version="1.1" id="Layer_2_1_" xmlns="http://www.w3.org/2000/svg" xmlns:xlink="http://www.w3.org/1999/xlink" x="0px" y="0px"
	 viewBox="0 0 412.8 668.3" style="enable-background:new 0 0 412.8 668.3;" xml:space="preserve">
<style type="text/css">
	.st0{fill:#DDE8E8;}
	.st1{fill:#F7C745;}
	.st2{fill:#EDAB26;}
	.st3{fill:#FFDF8F;}
	.st4{fill:#EA831C;}
	.st5{fill:#D2D8D8;}
	.st6{fill:#EFF4F4;}
	.st7{fill:#77BC69;}
	.st8{fill:#3B8A9D;}
</style>
<title>19_Art</title>
<polygon class="st0" points="13.4,458.6 35.2,445.8 95,480.2 72.9,492.9 "/>
<polygon class="st0" points="405.4,515.7 154.6,660.1 0,539.5 133.3,463 "/>
<polygon class="st1" points="73.6,513 161.1,297.4 179.3,286 89.6,503.7 "/>
<polygon class="st2" points="146.7,289.9 59.7,505 73.6,513 161.1,297.4 "/>
<polygon class="st2" points="224.2,345 233.3,350 197.3,15 188.2,9.8 "/>
<polygon class="st1" points="197.3,15 214.3,5.2 205.2,0 188.2,9.8 "/>
<polygon class="st3" points="197.3,15 233.3,350 250.9,339.3 214.3,5.2 "/>
<polygon class="st1" points="219.7,223.4 238.2,223.4 221.2,68.5 204.1,78.4 "/>
<polygon class="st4" points="195,73.1 205.5,171.3 214.1,171.3 204.1,78.4 "/>
<polygon class="st2" points="189.8,453.8 168.6,668.3 154.6,660.1 175.1,452.3 "/>
<polygon class="st4" points="171,493.8 185.1,501.9 189.8,453.8 175.1,452.3 "/>
<polygon class="st1" points="168.6,668.3 184.4,659.1 204.5,455.2 189.8,453.8 "/>
<polygon class="st2" points="185.1,502 200.8,492.9 204.5,455.2 189.8,453.8 "/>
<polygon class="st1" points="345.8,350.6 397.9,540.1 411.1,532.1 360,346.7 "/>
<polygon class="st2" points="397.9,540.1 379.9,530.4 331.5,354.5 345.8,350.6 "/>
<polygon class="st2" points="374.5,399.3 361.4,407.2 345.8,350.6 360,346.7 "/>
<polygon class="st4" points="361.4,407.3 343.2,396.9 331.5,354.5 345.8,350.6 "/>
<polygon class="st2" points="129.8,463 140.2,469 140.2,481 154.6,489.4 154.6,501.5 129.8,487.1 "/>
<polygon class="st1" points="129.8,463 387.9,313.9 398.4,319.9 140.2,469 "/>
<polygon class="st3" points="140.2,469 140.2,481 398.4,332 398.4,319.9 "/>
<polygon class="st1" points="140.2,481 398.4,332 412.8,340.3 154.6,489.4 "/>
<polygon class="st3" points="154.6,501.5 154.6,489.4 412.8,340.3 412.8,352.4 "/>
<polygon class="st5" points="156.3,472.4 164.7,477.3 128.7,142.3 120.3,137.5 "/>
<polygon class="st6" points="128.7,142.3 346.3,16.7 382.3,351.6 164.7,477.3 "/>
<polygon class="st0" points="120.3,137.5 128.7,142.3 346.3,16.7 337.8,11.9 "/>
<path class="st7" d="M307.1,226.1c-2,1.4-3.2,3.7-3.3,6.1c0,2.3,1.5,3.4,3.3,2.4c2-1.4,3.2-3.7,3.3-6.1
	C310.4,226.2,308.9,225.1,307.1,226.1z"/>
<path class="st7" d="M252.5,148.1c-3.2,1.8-5.8,6.7-5.8,10.8s2.6,6,5.8,4.2s5.8-6.7,5.8-10.8S255.7,146.3,252.5,148.1z"/>
<path class="st7" d="M316.9,194.2c-2.6,1.5-4.8,5.5-4.8,8.9s2.1,5,4.8,3.4s4.8-5.5,4.8-8.9S319.5,192.7,316.9,194.2z"/>
<path class="st7" d="M328.5,137.9l-7.4,1.8c-2.6,0.6-3.8-2.7-2.3-6.5l0-0.1c2.3-5.7-1.5-9-5.1-4.4l0,0c-2.3,2.9-5.1,2.8-5.7-0.2
	l-1.8-9.6c-0.9-4.6-6.4-1.8-7.6,3.9l-2.9,13.8c-0.8,3.8-3.8,6.9-6,6.1l-9-3c-3.3-1.1-7.6,6.1-5.8,9.8l0.3,0.6
	c1.1,2.2-0.1,6.4-2.5,8.6l-0.4,0.3c-3.3,3.1-3.9,9.1-1.1,9.8l2.6,0.6c2,0.5,2.4,3.9,0.8,7.2l-2.8,5.8c-2.4,5,0,9.2,3.6,6.3l4.7-3.7
	c2.4-1.9,4.5-0.7,4.5,2.4v17.6c0,5,5,4.2,7.2-1.2l0,0c0.1-0.6,0.6-0.9,1.2-0.8s0.9,0.6,0.8,1.2v15.2c0,1.4,0.9,2,1.9,1.4
	c1.2-0.8,1.9-2.2,1.9-3.6v-24.6c0-2,0.4-4,1.1-5.8l0,0c1.4-3.4,4.2-5.4,6-4.2l4.8,3.3c2.6,1.8,7-3.5,6.6-8l-1-12
	c-0.1-2.4,0.8-4.8,2.4-6.6l1.6-1.8c1.2-1.3,3.2-1.4,4.5-0.2c0.7,0.6,1,1.5,1,2.4l0,0c0,1.4,0.9,2,1.9,1.4c1.2-0.8,1.9-2.2,1.9-3.6
	V157c0.1-4.6,0.7-9.2,2-13.7C331.9,140.2,331,137.3,328.5,137.9z"/>
<path class="st7" d="M278.1,305c-2,1.4-3.2,3.7-3.3,6.1c0,2.3,1.5,3.4,3.3,2.4c2-1.4,3.2-3.7,3.3-6.1
	C281.4,305,279.9,303.9,278.1,305z"/>
<path class="st7" d="M209,180.3c-2,1.4-3.2,3.7-3.3,6.1c0,2.3,1.5,3.4,3.3,2.4c2-1.4,3.2-3.7,3.3-6.1
	C212.2,180.3,210.8,179.2,209,180.3z"/>
<path class="st8" d="M246.7,207c2.8-1.6,5-5.9,5-9.5s-2.2-5.4-5-3.8s-5,5.9-5,9.5S244,208.6,246.7,207z"/>
<path class="st8" d="M258.2,341.5c-2.2,1.3-4,4.6-4,7.5s1.8,4.1,4,2.9s4-4.6,4-7.5S260.5,340.2,258.2,341.5z"/>
<path class="st8" d="M254.7,312.2v8c0,1.4,0.9,2,1.9,1.4c1.2-0.8,1.9-2.2,1.9-3.6v-10.3c0-1.5,0.5-3,1.4-4.2c1.5-2,2.5-4.9,2-7.3
	l-3.1-12.8c-0.7-3,1.3-7.6,4-9.2l4.5-2.6c4.1-2.4,5.8-10.2,2.4-11.3l-1.5-0.5c-2.4-0.8-2.4-5.5,0-9l0,0c2.9-4.2,2.2-9.7-1.1-9
	l-0.7,0.1c-2.5,0.5-3.7-2.5-2.5-6.1l0.8-2.7c4-12.7-4.8-18.6-12.6-8.5l-3.2,4.1c-5.6,7.2-12.5,6.7-13.5-0.9l-0.6-5.2
	c-1.4-11.5-14.6-5.5-17.7,8.1l0,0c-0.8,3.6-3.5,6.8-5.8,6.6l-8.4-0.4c-3.2-0.2-6.8,5.8-5.8,9.7l1.8,7.2c0.5,2.1-0.3,5.2-2,7.4
	l-6.5,8.4c-3.1,4.1-2.8,9.9,0.6,9.5l9-1c2.4-0.3,3.5,2.6,2.4,6.2l-7.2,23.4c-0.9,2.9-0.4,4.9,0.8,5.8c1.8,1.1,2.9,3.1,3,5.2v17.7
	c0,1.4,0.9,2,1.9,1.4c1.2-0.8,1.9-2.2,1.9-3.6v-23.2c0,0-0.1-4,1.4-4.2v7c0,1.4,0.9,2,1.9,1.4c1.2-0.8,1.9-2.2,1.9-3.6v-10.3
	c0,0,0-5.5,4.3-5.5c0,0,8.2-0.3,9.7,15l2,30.3c1,5.3,7.6,1.2,8.2-5.2l4.3-32.6c0,0,0.4-6.8,5.7-6.8s1.3,4.7,5,8.8
	C250.4,309,254.7,307.4,254.7,312.2z"/>
<path class="st8" d="M205.5,223.4c2.1-1.5,3.4-3.9,3.5-6.6c0-2.5-1.6-3.6-3.5-2.5c-2.1,1.5-3.4,3.9-3.5,6.6
	C202,223.4,203.5,224.5,205.5,223.4z"/>
<path class="st8" d="M173.6,187.1c2.1-1.5,3.4-3.9,3.5-6.6c0-2.5-1.6-3.6-3.5-2.5c-2.1,1.5-3.4,3.9-3.5,6.6
	C170.1,187.1,171.7,188.2,173.6,187.1z"/>
<path class="st8" d="M177.1,262.4c-2.1,1.5-3.4,3.9-3.5,6.6c0,2.5,1.6,3.6,3.5,2.5c2.1-1.5,3.4-3.9,3.5-6.6
	C180.6,262.4,179.1,261.3,177.1,262.4z"/>
<path class="st8" d="M277.7,252.9c-1.2,0.9-2,2.2-2,3.7c0,1.4,0.9,2.1,2,1.4c1.2-0.9,2-2.2,2-3.7
	C279.7,252.9,278.8,252.3,277.7,252.9z"/>
<path class="st8" d="M284.4,158.4c-1.2,0.9-2,2.2-2,3.7c0,1.4,0.9,2.1,2,1.4c1.2-0.9,2-2.2,2-3.7
	C286.4,158.4,285.5,157.8,284.4,158.4z"/>
<path class="st8" d="M323.6,168.8c-1.2,0.9-2,2.2-2,3.7c0,1.4,0.9,2.1,2,1.4c1.2-0.9,2-2.2,2-3.7
	C325.6,168.8,324.7,168.1,323.6,168.8z"/>
<path class="st8" d="M331.4,298.1c-1.2,0.9-2,2.2-2,3.7c0,1.4,0.9,2.1,2,1.4c1.2-0.9,2-2.2,2-3.7
	C333.4,298.1,332.5,297.4,331.4,298.1z"/>
<path class="st2" d="M324.3,283.6l-5-3.5c-0.9-0.7-1.2-2.3-0.7-4.2l2.3-8.3c0.4-1.4-0.4-2.9-1.9-3.3c-1.1-0.3-2.4,0.1-3,1.1
	l-5.3,8.1c-1,1.6-2.5,2.5-3.6,2.2c-2.3-0.5-5.3,3.7-4.8,7l0.9,6.7c0.1,2.2-0.7,4.3-2.2,5.9l-1.1,1.1c-3,3-3,8.4,0,7.9l4.5-0.7
	c1.3-0.2,2.2,0.8,2.2,2.5v0.6c0.1,3.9,4,3.2,5.8-1l0,0c0.3-0.6,1-0.9,1.6-0.6c0.4,0.2,0.7,0.6,0.7,1.1v12.6c0,1.4,0.9,2,1.9,1.4
	c1.2-0.8,1.9-2.2,1.9-3.6V299c0-2.9,1.4-5.6,3.8-7.2l0,0C325.1,290,326.3,285,324.3,283.6z"/>
<path class="st2" d="M316.6,332.9c-1.2,0.8-1.9,2.2-1.9,3.6v2.1c0,1.4,0.9,2,1.9,1.4c1.2-0.8,1.9-2.2,1.9-3.6v-2.1
	C318.6,332.9,317.7,332.2,316.6,332.9z"/>
<path class="st2" d="M289.5,267.3c-1.8,1.3-3,3.4-3,5.7c0,2.2,1.4,3.2,3,2.2c1.8-1.3,3-3.4,3-5.7
	C292.5,267.3,291.1,266.4,289.5,267.3z"/>
<path class="st2" d="M332.6,262.4c-2.1,1.5-3.4,3.9-3.5,6.6c0,2.5,1.6,3.6,3.5,2.5c2.1-1.5,3.4-3.9,3.5-6.6
	C336.1,262.4,334.5,261.3,332.6,262.4z"/>
<path class="st1" d="M243,265.7c-2.4,1.4-4.3,5-4.3,8.1s1.9,4.5,4.3,3.1s4.3-5,4.3-8.1S245.4,264.3,243,265.7z"/>
<path class="st1" d="M224.1,258.3c-1.3,0.9-2.1,2.4-2.1,4c0,1.5,1,2.2,2.1,1.6c1.3-0.9,2.1-2.4,2.1-4
	C226.2,258.3,225.3,257.6,224.1,258.3z"/>
<path class="st1" d="M245.2,320.1c-1.3,0.9-2.1,2.4-2.1,4c0,1.5,1,2.2,2.1,1.6c1.3-0.9,2.1-2.4,2.1-4
	C247.3,320.1,246.4,319.5,245.2,320.1z"/>
<path class="st1" d="M297.7,171.6c-1.3,0.9-2.1,2.4-2.2,4c0,1.5,1,2.2,2.2,1.6c1.3-0.9,2.1-2.4,2.2-4
	C299.8,171.6,298.9,170.9,297.7,171.6z"/>
<path class="st7" d="M301.3,85.7c-2,1.4-3.2,3.7-3.3,6.1c0,2.3,1.5,3.4,3.3,2.4c2-1.4,3.2-3.7,3.3-6.1
	C304.5,85.7,303.1,84.6,301.3,85.7z"/>
</svg>
